<mxfile host="app.diagrams.net" agent="Mozilla/5.0 (Windows NT 10.0; Win64; x64) AppleWebKit/537.36 (KHTML, like Gecko) Chrome/137.0.0.0 Safari/537.36 Edg/137.0.0.0" version="28.2.5">
  <diagram name="Page-1" id="w0UfUpUUfux1YmTYL3Qv">
    <mxGraphModel dx="2908" dy="1112" grid="1" gridSize="10" guides="1" tooltips="1" connect="1" arrows="1" fold="1" page="1" pageScale="1" pageWidth="850" pageHeight="1100" math="0" shadow="0">
      <root>
        <mxCell id="0" />
        <mxCell id="1" parent="0" />
        <mxCell id="uigYJwYVuBVHVjmUfmwh-1" value="Publisher" style="rounded=1;whiteSpace=wrap;html=1;" parent="1" vertex="1">
          <mxGeometry x="-200" y="360" width="120" height="60" as="geometry" />
        </mxCell>
        <mxCell id="uigYJwYVuBVHVjmUfmwh-2" value="" style="endArrow=classic;html=1;rounded=0;exitX=1;exitY=0.5;exitDx=0;exitDy=0;" parent="1" source="uigYJwYVuBVHVjmUfmwh-1" edge="1">
          <mxGeometry width="50" height="50" relative="1" as="geometry">
            <mxPoint x="-20" y="390" as="sourcePoint" />
            <mxPoint x="-50" y="390" as="targetPoint" />
          </mxGeometry>
        </mxCell>
        <mxCell id="uigYJwYVuBVHVjmUfmwh-3" value="Load Balancer" style="rounded=1;whiteSpace=wrap;html=1;" parent="1" vertex="1">
          <mxGeometry x="-50" y="360" width="120" height="60" as="geometry" />
        </mxCell>
        <mxCell id="uigYJwYVuBVHVjmUfmwh-4" value="FrontEnd&lt;br&gt;Service" style="rounded=1;whiteSpace=wrap;html=1;" parent="1" vertex="1">
          <mxGeometry x="100" y="360" width="120" height="60" as="geometry" />
        </mxCell>
        <mxCell id="uigYJwYVuBVHVjmUfmwh-5" value="MetaData" style="shape=cylinder3;whiteSpace=wrap;html=1;boundedLbl=1;backgroundOutline=1;size=15;" parent="1" vertex="1">
          <mxGeometry x="290" y="130" width="60" height="80" as="geometry" />
        </mxCell>
        <mxCell id="uigYJwYVuBVHVjmUfmwh-6" value="MetaData Service&lt;br&gt;(Distributed)" style="rounded=1;whiteSpace=wrap;html=1;" parent="1" vertex="1">
          <mxGeometry x="260" y="230" width="120" height="60" as="geometry" />
        </mxCell>
        <mxCell id="uigYJwYVuBVHVjmUfmwh-7" value="" style="endArrow=classic;html=1;rounded=0;exitX=0.5;exitY=1;exitDx=0;exitDy=0;exitPerimeter=0;entryX=0.5;entryY=0;entryDx=0;entryDy=0;" parent="1" source="uigYJwYVuBVHVjmUfmwh-5" target="uigYJwYVuBVHVjmUfmwh-6" edge="1">
          <mxGeometry width="50" height="50" relative="1" as="geometry">
            <mxPoint x="290" y="290" as="sourcePoint" />
            <mxPoint x="340" y="240" as="targetPoint" />
          </mxGeometry>
        </mxCell>
        <mxCell id="uigYJwYVuBVHVjmUfmwh-8" value="" style="endArrow=classic;html=1;rounded=0;exitX=0.5;exitY=1;exitDx=0;exitDy=0;entryX=0.5;entryY=0;entryDx=0;entryDy=0;" parent="1" source="uigYJwYVuBVHVjmUfmwh-6" target="uigYJwYVuBVHVjmUfmwh-4" edge="1">
          <mxGeometry width="50" height="50" relative="1" as="geometry">
            <mxPoint x="191" y="329" as="sourcePoint" />
            <mxPoint x="191" y="359" as="targetPoint" />
            <Array as="points">
              <mxPoint x="320" y="320" />
              <mxPoint x="160" y="320" />
            </Array>
          </mxGeometry>
        </mxCell>
        <mxCell id="uigYJwYVuBVHVjmUfmwh-9" value="" style="endArrow=classic;html=1;rounded=0;exitX=0.5;exitY=1;exitDx=0;exitDy=0;" parent="1" source="uigYJwYVuBVHVjmUfmwh-4" edge="1">
          <mxGeometry width="50" height="50" relative="1" as="geometry">
            <mxPoint x="290" y="520" as="sourcePoint" />
            <mxPoint x="160" y="450" as="targetPoint" />
          </mxGeometry>
        </mxCell>
        <mxCell id="uigYJwYVuBVHVjmUfmwh-12" value="Request Validation&lt;br&gt;Authentication&lt;br&gt;Authorization&lt;br&gt;TLS Termination&lt;br&gt;Encryption&lt;br&gt;Rate Limiting&lt;br&gt;Auditing" style="text;html=1;strokeColor=none;fillColor=none;align=left;verticalAlign=middle;whiteSpace=wrap;rounded=0;" parent="1" vertex="1">
          <mxGeometry x="110" y="450" width="110" height="110" as="geometry" />
        </mxCell>
        <mxCell id="uigYJwYVuBVHVjmUfmwh-14" value="" style="endArrow=classic;html=1;rounded=0;exitX=1;exitY=0.5;exitDx=0;exitDy=0;" parent="1" source="uigYJwYVuBVHVjmUfmwh-4" edge="1">
          <mxGeometry width="50" height="50" relative="1" as="geometry">
            <mxPoint x="330" y="480" as="sourcePoint" />
            <mxPoint x="260" y="390" as="targetPoint" />
          </mxGeometry>
        </mxCell>
        <mxCell id="uigYJwYVuBVHVjmUfmwh-15" value="" style="endArrow=classic;html=1;rounded=0;exitX=1;exitY=0.5;exitDx=0;exitDy=0;entryX=0;entryY=0.5;entryDx=0;entryDy=0;" parent="1" source="uigYJwYVuBVHVjmUfmwh-3" target="uigYJwYVuBVHVjmUfmwh-4" edge="1">
          <mxGeometry width="50" height="50" relative="1" as="geometry">
            <mxPoint x="20" y="530" as="sourcePoint" />
            <mxPoint x="70" y="480" as="targetPoint" />
          </mxGeometry>
        </mxCell>
        <mxCell id="uigYJwYVuBVHVjmUfmwh-16" value="Message Sender Service" style="rounded=1;whiteSpace=wrap;html=1;" parent="1" vertex="1">
          <mxGeometry x="420" y="360" width="120" height="60" as="geometry" />
        </mxCell>
        <mxCell id="uigYJwYVuBVHVjmUfmwh-17" value="" style="endArrow=classic;html=1;rounded=0;entryX=0.5;entryY=0;entryDx=0;entryDy=0;" parent="1" target="uigYJwYVuBVHVjmUfmwh-16" edge="1">
          <mxGeometry width="50" height="50" relative="1" as="geometry">
            <mxPoint x="320" y="320" as="sourcePoint" />
            <mxPoint x="330" y="210" as="targetPoint" />
            <Array as="points">
              <mxPoint x="480" y="320" />
            </Array>
          </mxGeometry>
        </mxCell>
        <mxCell id="uigYJwYVuBVHVjmUfmwh-20" value="Subscriber" style="rounded=1;whiteSpace=wrap;html=1;" parent="1" vertex="1">
          <mxGeometry x="580" y="360" width="120" height="60" as="geometry" />
        </mxCell>
        <mxCell id="uigYJwYVuBVHVjmUfmwh-22" value="Retry/Dedup" style="text;html=1;strokeColor=none;fillColor=none;align=center;verticalAlign=middle;whiteSpace=wrap;rounded=0;" parent="1" vertex="1">
          <mxGeometry x="350" y="330" width="60" height="30" as="geometry" />
        </mxCell>
        <mxCell id="uigYJwYVuBVHVjmUfmwh-25" value="" style="endArrow=classic;html=1;rounded=0;exitX=1;exitY=0.5;exitDx=0;exitDy=0;entryX=0;entryY=0.5;entryDx=0;entryDy=0;" parent="1" source="uigYJwYVuBVHVjmUfmwh-16" target="uigYJwYVuBVHVjmUfmwh-20" edge="1">
          <mxGeometry width="50" height="50" relative="1" as="geometry">
            <mxPoint x="580" y="370" as="sourcePoint" />
            <mxPoint x="630" y="320" as="targetPoint" />
          </mxGeometry>
        </mxCell>
        <mxCell id="uigYJwYVuBVHVjmUfmwh-26" value="Order Guaranteed within partition" style="text;html=1;strokeColor=none;fillColor=none;align=center;verticalAlign=middle;whiteSpace=wrap;rounded=0;" parent="1" vertex="1">
          <mxGeometry x="-160" y="330" width="240" height="30" as="geometry" />
        </mxCell>
        <mxCell id="uigYJwYVuBVHVjmUfmwh-27" value="" style="rounded=1;whiteSpace=wrap;html=1;" parent="1" vertex="1">
          <mxGeometry x="260" y="360" width="120" height="340" as="geometry" />
        </mxCell>
        <mxCell id="uigYJwYVuBVHVjmUfmwh-13" value="Temp Storage" style="shape=cylinder3;whiteSpace=wrap;html=1;boundedLbl=1;backgroundOutline=1;size=15;" parent="1" vertex="1">
          <mxGeometry x="290" y="480" width="60" height="80" as="geometry" />
        </mxCell>
        <mxCell id="uigYJwYVuBVHVjmUfmwh-28" value="In-Memory Cache" style="rounded=1;whiteSpace=wrap;html=1;" parent="1" vertex="1">
          <mxGeometry x="275" y="415" width="90" height="40" as="geometry" />
        </mxCell>
        <mxCell id="uigYJwYVuBVHVjmUfmwh-30" value="" style="endArrow=classic;html=1;rounded=0;entryX=0;entryY=0.5;entryDx=0;entryDy=0;" parent="1" target="uigYJwYVuBVHVjmUfmwh-16" edge="1">
          <mxGeometry width="50" height="50" relative="1" as="geometry">
            <mxPoint x="380" y="390" as="sourcePoint" />
            <mxPoint x="500" y="460" as="targetPoint" />
          </mxGeometry>
        </mxCell>
        <mxCell id="uigYJwYVuBVHVjmUfmwh-19" value="&lt;br&gt;&lt;div style=&quot;text-align: left;&quot;&gt;&lt;span style=&quot;background-color: initial;&quot;&gt;NoSql&lt;/span&gt;&lt;/div&gt;&lt;div style=&quot;text-align: left;&quot;&gt;&lt;span style=&quot;background-color: initial;&quot;&gt;Sharding/Replication&lt;/span&gt;&lt;/div&gt;&lt;div style=&quot;text-align: left;&quot;&gt;&lt;span style=&quot;background-color: initial;&quot;&gt;Use Counting Semaphore to restrict too many&amp;nbsp; access&lt;/span&gt;&lt;/div&gt;" style="text;html=1;strokeColor=none;fillColor=none;align=center;verticalAlign=middle;whiteSpace=wrap;rounded=0;" parent="1" vertex="1">
          <mxGeometry x="275" y="590" width="90" height="90" as="geometry" />
        </mxCell>
        <mxCell id="uigYJwYVuBVHVjmUfmwh-31" value="Push vs Pull&lt;br&gt;1. Push - consumer is notified as soon as the message is available, easier for the consumer. May lead to hot key problem (Usage Spike for popular message). Not work/expensive for offline consumer.&lt;br&gt;1. Pull is easier for server implementation, but consumer needs to do more work. Delay for online consumer." style="text;html=1;strokeColor=none;fillColor=none;align=left;verticalAlign=middle;whiteSpace=wrap;rounded=0;" parent="1" vertex="1">
          <mxGeometry x="440" y="420" width="310" height="140" as="geometry" />
        </mxCell>
        <mxCell id="uigYJwYVuBVHVjmUfmwh-32" value="Service Discovery&lt;br&gt;Leader Election" style="text;html=1;strokeColor=none;fillColor=none;align=left;verticalAlign=middle;whiteSpace=wrap;rounded=0;" parent="1" vertex="1">
          <mxGeometry x="380" y="280" width="120" height="30" as="geometry" />
        </mxCell>
        <mxCell id="uigYJwYVuBVHVjmUfmwh-33" value="Storage Service&lt;br&gt;(Distributed)" style="text;html=1;strokeColor=none;fillColor=none;align=center;verticalAlign=middle;whiteSpace=wrap;rounded=0;" parent="1" vertex="1">
          <mxGeometry x="275" y="370" width="90" height="30" as="geometry" />
        </mxCell>
        <mxCell id="uigYJwYVuBVHVjmUfmwh-34" value="Notification/MessageQueue" style="text;html=1;strokeColor=none;fillColor=none;align=center;verticalAlign=middle;whiteSpace=wrap;rounded=0;fontStyle=1;fontSize=15;" parent="1" vertex="1">
          <mxGeometry x="-190" y="220" width="210" height="70" as="geometry" />
        </mxCell>
        <mxCell id="PTCdzAFVMZblXJGz8YvS-1" value="For Notification&lt;br&gt;Option 2: use a distributed message queue" style="text;html=1;strokeColor=none;fillColor=none;align=center;verticalAlign=middle;whiteSpace=wrap;rounded=0;" parent="1" vertex="1">
          <mxGeometry x="500" y="550" width="245" height="80" as="geometry" />
        </mxCell>
        <mxCell id="PTCdzAFVMZblXJGz8YvS-2" value="" style="endArrow=classic;html=1;rounded=0;entryX=0;entryY=0.5;entryDx=0;entryDy=0;" parent="1" target="PTCdzAFVMZblXJGz8YvS-1" edge="1">
          <mxGeometry width="50" height="50" relative="1" as="geometry">
            <mxPoint x="380" y="590" as="sourcePoint" />
            <mxPoint x="500" y="540" as="targetPoint" />
          </mxGeometry>
        </mxCell>
        <mxCell id="r8DuBiU2IM3-_VSogjTA-2" value="At least once + At most once = Exact once" style="text;html=1;strokeColor=none;fillColor=none;align=left;verticalAlign=middle;whiteSpace=wrap;rounded=0;" parent="1" vertex="1">
          <mxGeometry x="440" y="650" width="240" height="30" as="geometry" />
        </mxCell>
        <mxCell id="Zn0t2Rko6OTNFW_Vc6NQ-1" value="Handle Hot Partitions&lt;div&gt;1. Regenerate key (Partition key)&lt;/div&gt;&lt;div&gt;2. Append Number 1 - N to the key.&lt;/div&gt;&lt;div&gt;3. Backpressure.&lt;/div&gt;" style="rounded=0;whiteSpace=wrap;html=1;align=left;" parent="1" vertex="1">
          <mxGeometry x="-430" y="630" width="190" height="80" as="geometry" />
        </mxCell>
        <mxCell id="Zn0t2Rko6OTNFW_Vc6NQ-2" value="Producer&lt;div&gt;1. Batch messages&lt;/div&gt;&lt;div&gt;2. Compress Messages&lt;/div&gt;" style="rounded=0;whiteSpace=wrap;html=1;align=left;" parent="1" vertex="1">
          <mxGeometry x="-425" y="520" width="195" height="60" as="geometry" />
        </mxCell>
        <mxCell id="Zn0t2Rko6OTNFW_Vc6NQ-3" value="Retention Policy&lt;br&gt;&lt;div&gt;1. retention.ms&lt;/div&gt;&lt;div&gt;2. retention.bytes&lt;/div&gt;" style="rounded=0;whiteSpace=wrap;html=1;align=left;" parent="1" vertex="1">
          <mxGeometry x="-425" y="750" width="195" height="60" as="geometry" />
        </mxCell>
        <mxCell id="tNwQA_tJoecOhuGAk6w_-1" value="publish(bytes[] payload)&lt;div&gt;subscribe(bytes[] payload)&lt;/div&gt;" style="rounded=0;whiteSpace=wrap;html=1;align=left;" vertex="1" parent="1">
          <mxGeometry x="-660" y="420" width="320" height="60" as="geometry" />
        </mxCell>
      </root>
    </mxGraphModel>
  </diagram>
</mxfile>
